# xmcd CD database file
#
# Track frame offsets:
#	150
#	15660
#	31770
#	46845
#	62197
#	76435
#	90772
#	103257
#	118067
#	131825
#	147092
#	162412
#	177392
#	192637
#	206965
#	221957
#	236162
#	250805
#	266072
#	282417
#	297380
#	311785
#	327222
#
# Disc length: 4557 seconds
#
# Revision: 0
# Processed by: cddbd v1.5.1PL0 Copyright (c) Steve Scherf et al.
# Submitted via: CDex 1.51
#
DISCID=6b11cb17
DTITLE=Louis Armstrong - The Essential Recordings 1925-1940 - Disc Three - Sweethearts On Parade
DYEAR=1995
DGENRE=Jazz
TTITLE0=Knockin' A Jug [L. Armstrong, E. Condon] [1929]
TTITLE1=I Can't Give You Anything But Love [D. Fields, J. McHugh] [1929]
TTITLE2=How Do You Do It That Way [V. Spivey, R. Floyd] [1929]
TTITLE3=Ain't Misbehavin' [A. Razaf, T. Waller, H. Brooks] [1929]
TTITLE4=(What Did I Do To Be So) Black And Blue [A. Razaf, T. Waller, H. Brooks] [1929]
TTITLE5=That Rhythm Man [A. Razaf, T. Waller, H. Brooks] [1929]
TTITLE6=I Ain't Got Nobody [R. Graham, S. Williams] [1929]
TTITLE7=Dallas Blues [L. Jarret, H.A. Wand] [1929]
TTITLE8=St. Louis Blues [W.C. Handy] [1929]
TTITLE9=Rockin' Chair [H. Carmichael] [1929]
TTITLE10=Bessie Couldn't Help It [B. Warner, J. Richmond, C. Bayla] [1930]
TTITLE11=Dear Old Southland [H. Creamer, T. Leyton] [1930]
TTITLE12=My Sweet [H. Carmichael, S. Gorrel] [1930]
TTITLE13=I Can't Believe, That You're In Love With Me [C. Gaskell, J. McHugh] [1930]
TTITLE14=Dinah [S. Lewis, J. Young, H. Akst] [1930]
TTITLE15=I'm A Ding Dong Daddy (From Dumas] [P. Baxter] [1930]
TTITLE16=I'm In The Market For You [Y. Hanley, J. McCarthy] [1930]
TTITLE17=I'm Confessin' (That I Love You) [Neiburg, Daugherty, Reynolds] [1930]
TTITLE18=If I Could Be With You One Hour Tonight [H. Creamer, J. Johnson] [1930]
TTITLE19=Body And Soul [E. Heyman, R. Sour, F. Eyton, J. Green] [1930]
TTITLE20=Memories Of You [E. Blake] [1930]
TTITLE21=Your Lucky To Me [E. Blake, A. Razaf] [1930]
TTITLE22=Sweethearts On Parade [Newman, Lombardo] [1930]
EXTD=YEAR: 1995
EXTT0=
EXTT1=
EXTT2=
EXTT3=
EXTT4=
EXTT5=
EXTT6=
EXTT7=
EXTT8=
EXTT9=
EXTT10=
EXTT11=
EXTT12=
EXTT13=
EXTT14=
EXTT15=
EXTT16=
EXTT17=
EXTT18=
EXTT19=
EXTT20=
EXTT21=
EXTT22=
PLAYORDER=
